<?xml version="1.0" encoding="UTF-8" standalone="no"?>
<svg
   xmlns:dc="http://purl.org/dc/elements/1.1/"
   xmlns:cc="http://creativecommons.org/ns#"
   xmlns:rdf="http://www.w3.org/1999/02/22-rdf-syntax-ns#"
   xmlns:svg="http://www.w3.org/2000/svg"
   xmlns="http://www.w3.org/2000/svg"
   xmlns:sodipodi="http://sodipodi.sourceforge.net/DTD/sodipodi-0.dtd"
   xmlns:inkscape="http://www.inkscape.org/namespaces/inkscape"
   version="1.1"
   id="Layer_1"
   x="0px"
   y="0px"
   width="61"
   height="61"
   viewBox="0 0 61 61"
   enable-background="new 0 0 61 61"
   xml:space="preserve"
   sodipodi:docname="board8x8.svg"
   inkscape:version="1.0.1 (3bc2e813f5, 2020-09-07)"><metadata
   id="metadata8"><rdf:RDF><cc:Work
       rdf:about=""><dc:format>image/svg+xml</dc:format><dc:type
         rdf:resource="http://purl.org/dc/dcmitype/StillImage" /><dc:title></dc:title></cc:Work></rdf:RDF></metadata><defs
   id="defs6" /><sodipodi:namedview
   pagecolor="#ffffff"
   bordercolor="#666666"
   borderopacity="1"
   objecttolerance="10"
   gridtolerance="10"
   guidetolerance="10"
   inkscape:pageopacity="0"
   inkscape:pageshadow="2"
   inkscape:window-width="1920"
   inkscape:window-height="1027"
   id="namedview4"
   showgrid="true"
   inkscape:showpageshadow="false"
   inkscape:zoom="27.442623"
   inkscape:cx="16.508606"
   inkscape:cy="65.747866"
   inkscape:window-x="-8"
   inkscape:window-y="-8"
   inkscape:window-maximized="1"
   inkscape:current-layer="Layer_1"
   inkscape:document-rotation="0"><inkscape:grid
     type="xygrid"
     id="grid833" /></sodipodi:namedview>  
<path
   id="rect843"
   style="fill:#280b0b;stroke-width:0.896258"
   d="M 6,6 H 55 V 7 H 6 Z" /><path
   id="rect845"
   style="fill:#280b0b;stroke-width:0.894427"
   d="M 6,7 H 7 V 55 H 6 Z" /><path
   id="rect851"
   style="fill:#280b0b;stroke-width:0.901975"
   d="m 12,7 h 1 v 48 h -1 z" /><path
   id="rect855"
   style="fill:#280b0b;stroke-width:0.901975"
   d="m 18,7 h 1 v 48 h -1 z" /><path
   id="rect857"
   style="fill:#280b0b;stroke-width:0.901975"
   d="m 24,7 h 1 v 48 h -1 z" /><path
   id="rect861"
   style="fill:#280b0b;stroke-width:0.901975"
   d="m 54,7 h 1 v 48 h -1 z" /><path
   id="rect863"
   style="fill:#280b0b;stroke-width:0.901975"
   d="m 30,7 h 1 v 48 h -1 z" /><path
   id="rect865"
   style="fill:#280b0b;stroke-width:0.901975"
   d="m 36,7 h 1 v 48 h -1 z" /><path
   id="rect867"
   style="fill:#280b0b;stroke-width:0.894427"
   d="m 42,7 h 1 v 48 h -1 z" /><path
   id="rect869"
   style="fill:#280b0b;stroke-width:0.894427"
   d="m 48,7 h 1 v 48 h -1 z" /><path
   id="rect871"
   style="fill:#280b0b;stroke-width:0.903696"
   d="M 6.8166667,12 H 55 v 1 H 6.8166667 Z" /><path
   id="rect873"
   style="fill:#280b0b;stroke-width:0.903696"
   d="M 6.8166667,18 H 55 v 1 H 6.8166667 Z" /><path
   id="rect875"
   style="fill:#280b0b;stroke-width:0.903696"
   d="M 6.8166667,24 H 55 v 1 H 6.8166667 Z" /><path
   id="rect877"
   style="fill:#280b0b;stroke-width:0.902999"
   d="M 6.8909091,30 H 55 v 1 H 6.8909091 Z" /><path
   id="rect879"
   style="fill:#280b0b;stroke-width:0.903"
   d="M 6.8909091,36 H 55 v 1 H 6.8909091 Z" /><path
   id="rect881"
   style="fill:#280b0b;stroke-width:0.902999"
   d="M 6.8909091,42 H 55 v 1 H 6.8909091 Z" /><path
   id="rect883"
   style="fill:#280b0b;stroke-width:0.902999"
   d="M 6.8909091,48 H 55 v 1 H 6.8909091 Z" /><path
   id="rect885"
   style="fill:#280b0b;stroke-width:0.903696"
   d="M 6.8166667,54 H 55 v 1 H 6.8166667 Z" /></svg>
