<?xml version="1.0" encoding="UTF-8" standalone="no"?>
<svg
   xmlns:dc="http://purl.org/dc/elements/1.1/"
   xmlns:cc="http://creativecommons.org/ns#"
   xmlns:rdf="http://www.w3.org/1999/02/22-rdf-syntax-ns#"
   xmlns:svg="http://www.w3.org/2000/svg"
   xmlns="http://www.w3.org/2000/svg"
   xmlns:sodipodi="http://sodipodi.sourceforge.net/DTD/sodipodi-0.dtd"
   xmlns:inkscape="http://www.inkscape.org/namespaces/inkscape"
   version="1.1"
   id="Layer_1"
   x="0px"
   y="0px"
   width="61px"
   height="61px"
   viewBox="0 0 61 61"
   enable-background="new 0 0 61 61"
   xml:space="preserve"
   sodipodi:docname="board - Copy.svg"
   inkscape:version="1.0.1 (3bc2e813f5, 2020-09-07)"><metadata
   id="metadata8"><rdf:RDF><cc:Work
       rdf:about=""><dc:format>image/svg+xml</dc:format><dc:type
         rdf:resource="http://purl.org/dc/dcmitype/StillImage" /><dc:title /></cc:Work></rdf:RDF></metadata><defs
   id="defs6" /><sodipodi:namedview
   pagecolor="#ffffff"
   bordercolor="#666666"
   borderopacity="1"
   objecttolerance="10"
   gridtolerance="10"
   guidetolerance="10"
   inkscape:pageopacity="0"
   inkscape:pageshadow="2"
   inkscape:window-width="1920"
   inkscape:window-height="1027"
   id="namedview4"
   showgrid="true"
   inkscape:showpageshadow="false"
   inkscape:zoom="7.0491803"
   inkscape:cx="23.617016"
   inkscape:cy="35.076599"
   inkscape:window-x="-8"
   inkscape:window-y="-8"
   inkscape:window-maximized="1"
   inkscape:current-layer="Layer_1"
   inkscape:document-rotation="0"><inkscape:grid
     type="xygrid"
     id="grid833" /></sodipodi:namedview>  
<path
   id="rect843"
   style="fill:#280b0b;stroke-width:0.949547"
   d="M 3,3 H 58 V 4 H 3 Z" /><path
   id="rect845"
   style="fill:#280b0b;stroke-width:0.948683"
   d="M 3,4 H 4 V 58 H 3 Z" /><path
   id="rect851"
   style="fill:#280b0b;stroke-width:0.956689"
   d="m 9,4 h 1 V 58 H 9 Z" /><path
   id="rect855"
   style="fill:#280b0b;stroke-width:0.956689"
   d="m 15,4 h 1 v 54 h -1 z" /><path
   id="rect857"
   style="fill:#280b0b;stroke-width:0.956689"
   d="m 21,4 h 1 v 54 h -1 z" /><path
   id="rect859"
   style="fill:#280b0b;stroke-width:0.956689"
   d="m 57,4 h 1 v 54 h -1 z" /><path
   id="rect861"
   style="fill:#280b0b;stroke-width:0.956689"
   d="m 51,4 h 1 v 54 h -1 z" /><path
   id="rect863"
   style="fill:#280b0b;stroke-width:0.956689"
   d="m 27,4 h 1 v 54 h -1 z" /><path
   id="rect865"
   style="fill:#280b0b;stroke-width:0.956689"
   d="m 33,4 h 1 v 54 h -1 z" /><path
   id="rect867"
   style="fill:#280b0b;stroke-width:0.948683"
   d="m 39,4 h 1 v 54 h -1 z" /><path
   id="rect869"
   style="fill:#280b0b;stroke-width:0.948683"
   d="m 45,4 h 1 v 54 h -1 z" /><path
   id="rect871"
   style="fill:#280b0b;stroke-width:0.957427"
   d="M 3.9166667,9 H 58 v 1 H 3.9166667 Z" /><path
   id="rect873"
   style="fill:#280b0b;stroke-width:0.957427"
   d="M 3.9166667,15 H 58 v 1 H 3.9166667 Z" /><path
   id="rect875"
   style="fill:#280b0b;stroke-width:0.957427"
   d="M 3.9166667,21 H 58 v 1 H 3.9166667 Z" /><path
   id="rect877"
   style="fill:#280b0b;stroke-width:0.956689"
   d="m 4,27 h 54 v 1 H 4 Z" /><path
   id="rect879"
   style="fill:#280b0b;stroke-width:0.95669"
   d="m 4,33 h 54 v 1 H 4 Z" /><path
   id="rect881"
   style="fill:#280b0b;stroke-width:0.956689"
   d="m 4,39 h 54 v 1 H 4 Z" /><path
   id="rect883"
   style="fill:#280b0b;stroke-width:0.956689"
   d="m 4,45 h 54 v 1 H 4 Z" /><path
   id="rect885"
   style="fill:#280b0b;stroke-width:0.957427"
   d="M 3.9166667,51 H 58 v 1 H 3.9166667 Z" /><path
   id="rect887"
   style="fill:#280b0b;stroke-width:0.957427"
   d="M 3.9166667,57 H 58 v 1 H 3.9166667 Z" /></svg>
