<?xml version="1.0" encoding="UTF-8" standalone="no"?>
<svg
   xmlns:dc="http://purl.org/dc/elements/1.1/"
   xmlns:cc="http://creativecommons.org/ns#"
   xmlns:rdf="http://www.w3.org/1999/02/22-rdf-syntax-ns#"
   xmlns:svg="http://www.w3.org/2000/svg"
   xmlns="http://www.w3.org/2000/svg"
   xmlns:sodipodi="http://sodipodi.sourceforge.net/DTD/sodipodi-0.dtd"
   xmlns:inkscape="http://www.inkscape.org/namespaces/inkscape"
   version="1.1"
   id="Layer_1"
   x="0px"
   y="0px"
   width="61px"
   height="61px"
   viewBox="0 0 61 61"
   enable-background="new 0 0 61 61"
   xml:space="preserve"
   sodipodi:docname="board7x7.svg"
   inkscape:version="1.0.1 (3bc2e813f5, 2020-09-07)"><metadata
   id="metadata8"><rdf:RDF><cc:Work
       rdf:about=""><dc:format>image/svg+xml</dc:format><dc:type
         rdf:resource="http://purl.org/dc/dcmitype/StillImage" /><dc:title /></cc:Work></rdf:RDF></metadata><defs
   id="defs6" /><sodipodi:namedview
   pagecolor="#ffffff"
   bordercolor="#666666"
   borderopacity="1"
   objecttolerance="10"
   gridtolerance="10"
   guidetolerance="10"
   inkscape:pageopacity="0"
   inkscape:pageshadow="2"
   inkscape:window-width="1920"
   inkscape:window-height="1027"
   id="namedview4"
   showgrid="true"
   inkscape:showpageshadow="false"
   inkscape:zoom="9.9690464"
   inkscape:cx="16.143515"
   inkscape:cy="48.125864"
   inkscape:window-x="-8"
   inkscape:window-y="-8"
   inkscape:window-maximized="1"
   inkscape:current-layer="Layer_1"
   inkscape:document-rotation="0"><inkscape:grid
     type="xygrid"
     id="grid833" /></sodipodi:namedview>  
<path
   id="rect843"
   style="fill:#280b0b;stroke-width:0.839594"
   d="M 8.9999998,9 H 52 v 1 H 8.9999998 Z" /><path
   id="rect845"
   style="fill:#280b0b;stroke-width:0.83666"
   d="M 8.9999998,10 H 10 V 52 H 8.9999998 Z" /><path
   id="rect851"
   style="fill:#280b0b;stroke-width:0.84372"
   d="m 15,10 h 1 v 42 h -1 z" /><path
   id="rect855"
   style="fill:#280b0b;stroke-width:0.84372"
   d="m 21,10 h 1 v 42 h -1 z" /><path
   id="rect857"
   style="fill:#280b0b;stroke-width:0.84372"
   d="m 27,10 h 1 v 42 h -1 z" /><path
   id="rect863"
   style="fill:#280b0b;stroke-width:0.84372"
   d="m 33,10 h 1 v 42 h -1 z" /><path
   id="rect865"
   style="fill:#280b0b;stroke-width:0.84372"
   d="m 39,10 h 1 v 42 h -1 z" /><path
   id="rect867"
   style="fill:#280b0b;stroke-width:0.83666"
   d="m 45,10 h 1 v 42 h -1 z" /><path
   id="rect869"
   style="fill:#280b0b;stroke-width:0.83666"
   d="m 51,10 h 1 v 42 h -1 z" /><path
   id="rect871"
   style="fill:#280b0b;stroke-width:0.846562"
   d="M 9.7166665,15 H 52 v 1 H 9.7166665 Z" /><path
   id="rect873"
   style="fill:#280b0b;stroke-width:0.846562"
   d="M 9.7166665,21 H 52 v 1 H 9.7166665 Z" /><path
   id="rect875"
   style="fill:#280b0b;stroke-width:0.846562"
   d="M 9.7166665,27 H 52 v 1 H 9.7166665 Z" /><path
   id="rect877"
   style="fill:#280b0b;stroke-width:0.845909"
   d="M 9.781818,33 H 52 v 1 H 9.781818 Z" /><path
   id="rect879"
   style="fill:#280b0b;stroke-width:0.84591"
   d="M 9.781818,39 H 52 v 1 H 9.781818 Z" /><path
   id="rect881"
   style="fill:#280b0b;stroke-width:0.845909"
   d="M 9.781818,45 H 52 v 1 H 9.781818 Z" /><path
   id="rect883"
   style="fill:#280b0b;stroke-width:0.845909"
   d="M 9.781818,51 H 52 v 1 H 9.781818 Z" /></svg>
