<?xml version="1.0" encoding="UTF-8" standalone="no"?>
<svg
   xmlns:dc="http://purl.org/dc/elements/1.1/"
   xmlns:cc="http://creativecommons.org/ns#"
   xmlns:rdf="http://www.w3.org/1999/02/22-rdf-syntax-ns#"
   xmlns:svg="http://www.w3.org/2000/svg"
   xmlns="http://www.w3.org/2000/svg"
   xmlns:sodipodi="http://sodipodi.sourceforge.net/DTD/sodipodi-0.dtd"
   xmlns:inkscape="http://www.inkscape.org/namespaces/inkscape"
   version="1.1"
   id="Layer_1"
   x="0px"
   y="0px"
   width="61px"
   height="61px"
   viewBox="0 0 61 61"
   enable-background="new 0 0 61 61"
   xml:space="preserve"
   sodipodi:docname="board.svg"
   inkscape:version="1.0.1 (3bc2e813f5, 2020-09-07)"><metadata
   id="metadata8"><rdf:RDF><cc:Work
       rdf:about=""><dc:format>image/svg+xml</dc:format><dc:type
         rdf:resource="http://purl.org/dc/dcmitype/StillImage" /><dc:title></dc:title></cc:Work></rdf:RDF></metadata><defs
   id="defs6" /><sodipodi:namedview
   pagecolor="#ffffff"
   bordercolor="#666666"
   borderopacity="1"
   objecttolerance="10"
   gridtolerance="10"
   guidetolerance="10"
   inkscape:pageopacity="0"
   inkscape:pageshadow="2"
   inkscape:window-width="1920"
   inkscape:window-height="1027"
   id="namedview4"
   showgrid="true"
   inkscape:showpageshadow="false"
   inkscape:zoom="9.9690464"
   inkscape:cx="32.666618"
   inkscape:cy="33.616919"
   inkscape:window-x="-8"
   inkscape:window-y="-8"
   inkscape:window-maximized="1"
   inkscape:current-layer="Layer_1"><inkscape:grid
     type="xygrid"
     id="grid833" /></sodipodi:namedview>  
<path
   id="rect843"
   style="fill:#280b0b"
   d="M 0,0 H 61 V 1 H 0 Z" /><path
   id="rect845"
   style="fill:#280b0b"
   d="M 0,1 H 1 V 61 H 0 Z" /><path
   id="rect847"
   style="fill:#280b0b"
   d="m 60,0 h 1 v 61 h -1 z" /><path
   id="rect849"
   style="fill:#280b0b"
   d="m 0,60 h 60 v 1 H 0 Z" /><path
   id="rect851"
   style="fill:#280b0b"
   d="M 6,1 H 7 V 60 H 6 Z" /><path
   id="rect855"
   style="fill:#280b0b"
   d="m 12,1 h 1 v 59 h -1 z" /><path
   id="rect857"
   style="fill:#280b0b"
   d="m 18,1 h 1 v 59 h -1 z" /><path
   id="rect859"
   style="fill:#280b0b"
   d="m 54,1 h 1 v 59 h -1 z" /><path
   id="rect861"
   style="fill:#280b0b"
   d="m 48,1 h 1 v 59 h -1 z" /><path
   id="rect863"
   style="fill:#280b0b"
   d="m 24,1 h 1 v 59 h -1 z" /><path
   id="rect865"
   style="fill:#280b0b"
   d="m 30,1 h 1 v 59 h -1 z" /><path
   id="rect867"
   style="fill:#280b0b"
   d="m 36,1 h 1 v 60 h -1 z" /><path
   id="rect869"
   style="fill:#280b0b"
   d="m 42,1 h 1 v 60 h -1 z" /><path
   id="rect871"
   style="fill:#280b0b"
   d="M 1,6 H 60 V 7 H 1 Z" /><path
   id="rect873"
   style="fill:#280b0b"
   d="m 1,12 h 59 v 1 H 1 Z" /><path
   id="rect875"
   style="fill:#280b0b"
   d="m 1,18 h 59 v 1 H 1 Z" /><path
   id="rect877"
   style="fill:#280b0b"
   d="m 1,24 h 59 v 1 H 1 Z" /><path
   id="rect879"
   style="fill:#280b0b"
   d="m 1,30 h 59 v 1 H 1 Z" /><path
   id="rect881"
   style="fill:#280b0b"
   d="m 1,36 h 59 v 1 H 1 Z" /><path
   id="rect883"
   style="fill:#280b0b"
   d="m 1,42 h 59 v 1 H 1 Z" /><path
   id="rect885"
   style="fill:#280b0b"
   d="m 1,48 h 59 v 1 H 1 Z" /><path
   id="rect887"
   style="fill:#280b0b"
   d="m 1,54 h 59 v 1 H 1 Z" /></svg>
